<?xml version="1.0" encoding="utf-8"?>
<!-- Generator: Adobe Illustrator 24.1.0, SVG Export Plug-In . SVG Version: 6.00 Build 0)  -->
<svg version="1.1" id="Слой_1" xmlns="http://www.w3.org/2000/svg" xmlns:xlink="http://www.w3.org/1999/xlink" x="0px" y="0px"
	 viewBox="0 0 400 400" style="enable-background:new 0 0 400 400;" xml:space="preserve">
<style type="text/css">
	.st0{fill:#F38181;}
</style>
<desc>Created with Fabric.js 3.6.2</desc>
<g id="Layer_10_1_" transform="matrix(1.41 0 0 1.41 199.97 199.97)">
	<path class="st0" d="M67.4-94H-47.9C-68-94-84.3-77.8-84.4-57.7c0,0,0,0.1,0,0.1V57.7c0,20.1,16.3,36.3,36.3,36.3H67.4
		c20.1,0,36.3-16.3,36.3-36.3V-57.6C103.7-77.7,87.5-94,67.4-94C67.4-94,67.4-94,67.4-94z M77.9-72.4H82v32H50.3L50-72.1L77.9-72.4z
		 M-17-19.3c10.7-14.8,31.3-18.1,46.1-7.4C43.9-16,47.2,4.6,36.5,19.4S5.2,37.4-9.6,26.7C-18.2,20.5-23.2,10.6-23.2,0
		c0-6.9,2.1-13.6,6.1-19.2L-17-19.3z M85.5,57.6c0,9.9-8.1,18-18,18H-47.9c-9.9,0-17.9-8-18-17.9v-76.9h28
		C-48.6,7.1-35.9,37-9.6,47.7s56.3-2,66.9-28.3c5-12.4,5-26.2,0-38.6h28.1L85.5,57.6z"/>
</g>
</svg>
