<?xml version="1.0" encoding="utf-8"?>
<!-- Generator: Adobe Illustrator 24.1.0, SVG Export Plug-In . SVG Version: 6.00 Build 0)  -->
<svg version="1.1" id="Слой_1" xmlns="http://www.w3.org/2000/svg" xmlns:xlink="http://www.w3.org/1999/xlink" x="0px" y="0px"
	 viewBox="0 0 30 30" style="enable-background:new 0 0 30 30;" xml:space="preserve">
<style type="text/css">
	.st0{fill:#F38181;}
</style>
<g id="Layer_1_1_" transform="matrix(0.42 0 0 0.42 200 200)">
	<path class="st0" d="M-411.4-458.7c-2.1,0.9-4.4,1.6-6.8,1.9c2.4-1.5,4.3-3.8,5.2-6.5c-2.3,1.4-4.8,2.3-7.5,2.9
		c-2.2-2.3-5.2-3.7-8.6-3.7c-6.5,0-11.8,5.3-11.8,11.8c0,0.9,0.1,1.8,0.3,2.7c-9.8-0.5-18.5-5.2-24.4-12.4c-1,1.7-1.6,3.8-1.6,5.9
		c0,4.1,2.1,7.7,5.3,9.8c-1.9,0-3.8-0.6-5.4-1.5c0,0,0,0.1,0,0.1c0,5.7,4.1,10.5,9.5,11.6c-1,0.3-2,0.4-3.1,0.4
		c-0.8,0-1.5-0.1-2.2-0.2c1.5,4.7,5.9,8.1,11,8.2c-4,3.2-9.1,5.1-14.7,5.1c-1,0-1.9-0.1-2.8-0.2c5.2,3.4,11.4,5.3,18.1,5.3
		c21.7,0,33.6-18,33.6-33.7c0-0.5,0-1,0-1.5C-415-454.3-413-456.4-411.4-458.7z"/>
</g>
</svg>
