<?xml version="1.0" encoding="utf-8"?>
<!-- Generator: Adobe Illustrator 24.1.0, SVG Export Plug-In . SVG Version: 6.00 Build 0)  -->
<svg version="1.1" id="Слой_1" xmlns="http://www.w3.org/2000/svg" xmlns:xlink="http://www.w3.org/1999/xlink" x="0px" y="0px"
	 viewBox="0 0 30 30" style="enable-background:new 0 0 30 30;" xml:space="preserve">
<style type="text/css">
	.st0{fill:#F38181;}
</style>
<g id="Layer_x0020_1_1_" transform="matrix(0.02 0 0 0.02 200 200.01)">
	<path class="st0" d="M-9490.1-9229.7c11.8,4.9,22.6,0.2,25.9-12.9c2.5-9.1,8-31.9,10.6-41.5c3.5-13,2.1-17.7-7.5-28.9
		c-20.7-24.6-34.1-56.5-34.1-101.5c0-130.8,97.8-247.8,254.7-247.8c138.9,0,215.2,84.9,215.2,198.2c0,149.2-66,275.1-164,275.1
		c-54.2,0-94.6-44.8-81.7-99.6c15.7-65.6,45.8-136.3,45.8-183.6c0-42.4-22.7-77.7-69.9-77.7c-55.3,0-99.8,57.3-99.8,133.9
		c0,48.8,16.6,82,16.6,82s-56.7,239.8-66.6,281.9c-19.8,83.7-2.9,186.2-1.5,196.7c0.9,6.1,8.8,7.5,12.3,2.9
		c5.2-6.6,71.1-88,93.5-169.3c6.3-23,36.4-142.2,36.4-142.2c18,34.2,70.5,64.5,126.4,64.5c166.3,0,279.1-151.7,279.1-354.7
		c0-153.4-129.9-296.3-327.5-296.3c-245.8,0-369.9,176.3-369.9,323.2C-9596-9338.3-9562.2-9259.2-9490.1-9229.7z"/>
</g>
</svg>
