<?xml version="1.0" encoding="utf-8"?>
<!-- Generator: Adobe Illustrator 24.1.0, SVG Export Plug-In . SVG Version: 6.00 Build 0)  -->
<svg version="1.1" id="Слой_1" xmlns="http://www.w3.org/2000/svg" xmlns:xlink="http://www.w3.org/1999/xlink" x="0px" y="0px"
	 viewBox="0 0 90 23" style="enable-background:new 0 0 90 23;" xml:space="preserve">
<style type="text/css">
	.st0{enable-background:new    ;}
	.st1{fill:#FFFFFF;}
</style>
<g class="st0">
	<path class="st1" d="M20.4,22.4l0-12.6l-6.2,10.4H12L5.8,10.1v12.3H1.2v-21h4l7.9,13.1l7.7-13.1h4l0.1,21H20.4z"/>
	<path class="st1" d="M32.7,21.6c-1.4-0.7-2.4-1.7-3.2-3c-0.8-1.3-1.1-2.7-1.1-4.3c0-1.6,0.4-3,1.1-4.3c0.8-1.3,1.8-2.2,3.2-3
		S35.5,6,37.2,6c1.7,0,3.2,0.4,4.6,1.1s2.4,1.7,3.1,3c0.8,1.3,1.1,2.7,1.1,4.3c0,1.6-0.4,3-1.1,4.3c-0.8,1.3-1.8,2.2-3.1,3
		s-2.9,1.1-4.6,1.1C35.5,22.6,34,22.3,32.7,21.6z M40.2,17.6c0.8-0.8,1.2-1.9,1.2-3.3c0-1.4-0.4-2.4-1.2-3.3c-0.8-0.8-1.8-1.2-3-1.2
		c-1.2,0-2.2,0.4-3,1.2c-0.8,0.8-1.2,1.9-1.2,3.3c0,1.4,0.4,2.4,1.2,3.3c0.8,0.8,1.8,1.2,3,1.2C38.4,18.8,39.4,18.4,40.2,17.6z"/>
	<path class="st1" d="M63.7,11.6h4.4v8.5c-1.1,0.9-2.5,1.5-4,2s-3,0.7-4.5,0.7c-2.2,0-4.1-0.5-5.9-1.4s-3.1-2.2-4.1-3.9
		c-1-1.6-1.5-3.5-1.5-5.6c0-2.1,0.5-3.9,1.5-5.6c1-1.6,2.4-2.9,4.1-3.9C55.6,1.5,57.6,1,59.8,1c1.8,0,3.5,0.3,5,0.9
		c1.5,0.6,2.8,1.5,3.8,2.7l-3.1,2.9C63.9,6,62.1,5.2,60,5.2c-1.3,0-2.5,0.3-3.6,0.8c-1,0.6-1.8,1.4-2.4,2.4c-0.6,1-0.9,2.2-0.9,3.5
		c0,1.3,0.3,2.5,0.9,3.5c0.6,1,1.4,1.8,2.4,2.4c1,0.6,2.2,0.9,3.5,0.9c1.4,0,2.7-0.3,3.8-0.9V11.6z"/>
	<path class="st1" d="M75.5,21.6c-1.3-0.7-2.4-1.7-3.2-3c-0.8-1.3-1.1-2.7-1.1-4.3c0-1.6,0.4-3,1.1-4.3c0.8-1.3,1.8-2.2,3.2-3
		C76.8,6.4,78.3,6,80,6s3.2,0.4,4.6,1.1c1.3,0.7,2.4,1.7,3.1,3c0.8,1.3,1.1,2.7,1.1,4.3c0,1.6-0.4,3-1.1,4.3c-0.8,1.3-1.8,2.2-3.1,3
		c-1.3,0.7-2.9,1.1-4.6,1.1S76.8,22.3,75.5,21.6z M83,17.6c0.8-0.8,1.2-1.9,1.2-3.3c0-1.4-0.4-2.4-1.2-3.3c-0.8-0.8-1.8-1.2-3-1.2
		s-2.2,0.4-3,1.2c-0.8,0.8-1.2,1.9-1.2,3.3c0,1.4,0.4,2.4,1.2,3.3c0.8,0.8,1.8,1.2,3,1.2S82.2,18.4,83,17.6z"/>
</g>
</svg>
